<?xml version="1.0" encoding="UTF-8" standalone="no"?>
<!DOCTYPE svg PUBLIC "-//W3C//DTD SVG 1.1//EN" "http://www.w3.org/Graphics/SVG/1.1/DTD/svg11.dtd">
<svg width="100%" height="100%" viewBox="0 0 100 75" version="1.1" xmlns="http://www.w3.org/2000/svg" xmlns:xlink="http://www.w3.org/1999/xlink" xml:space="preserve" xmlns:serif="http://www.serif.com/" style="fill-rule:evenodd;clip-rule:evenodd;stroke-linejoin:round;stroke-miterlimit:1.41421;">
    <g transform="matrix(1,0,0,1,-30.4689,-4.0751)">
        <path d="M44.27,79.301C61.857,65.132 41.978,58.253 61.081,59.394C80.185,60.535 60.926,37.132 82.749,49.94C90.135,54.275 75.168,27.529 93.852,33.163C108.562,37.598 100.943,12.086 108.496,22.05C116.049,32.015 114.748,15.397 115.069,11.812C116.088,0.427 120.068,0.541 125.485,8.439C137.307,25.673 136.125,11.298 140.636,14.559C151.812,22.638 129.066,86.302 129.066,86.302C129.066,86.302 26.683,93.47 44.27,79.301Z" style="fill:rgb(32,36,41);"/>
    </g>
</svg>
